<svg width="16" height="16" viewBox="0 0 16 16" fill="none" xmlns="http://www.w3.org/2000/svg">
<path d="M3.7019 9.28943C3.7019 9.52583 3.89801 9.71924 4.13171 9.71924H7.28813L4.70927 7.14038H4.13171C3.89801 7.14038 3.7019 7.33648 3.7019 7.57019V9.28943ZM8 1.12305C4.20156 1.12305 1.12305 4.20156 1.12305 8C1.12305 11.7984 4.20156 14.877 8 14.877C11.7984 14.877 14.877 11.7984 14.877 8C14.877 4.20156 11.7984 1.12305 8 1.12305ZM8 13.1577C5.1552 13.1577 2.84229 10.844 2.84229 8C2.84229 6.88841 3.19822 5.85767 3.80264 5.01551L10.9858 12.1987C10.1437 12.8031 9.11213 13.1577 8 13.1577ZM9.21421 8H11.4385V8.85962H10.0736L9.21421 8ZM12.1987 10.9845L10.9335 9.71924H11.8683C12.1033 9.71924 12.2981 9.52448 12.2981 9.28943V7.57019C12.2981 7.33648 12.1047 7.14038 11.8683 7.14038H8.35459L5.01551 3.80264C5.85901 3.19822 6.88787 2.84229 8 2.84229C10.8448 2.84229 13.1577 5.1552 13.1577 8C13.1577 9.11213 12.8031 10.1437 12.1987 10.9845ZM9.73536 4.56152C9.31629 4.56152 8.96707 4.26066 8.89454 3.86577C8.87305 3.76906 8.78709 3.7019 8.68501 3.7019H8.24848C8.11417 3.7019 8.01679 3.82279 8.03358 3.95375C8.15849 4.78449 8.87305 5.42114 9.73536 5.42114C10.1571 5.42114 10.5063 5.7247 10.5789 6.1169C10.6003 6.2136 10.6863 6.28076 10.7884 6.28076H11.2228C11.3571 6.28076 11.4567 6.15988 11.4365 6.02892C11.3122 5.19818 10.6003 4.56152 9.73536 4.56152Z" fill="#6F7096"/>
</svg>
