<svg width="157" height="36" viewBox="0 0 157 36" fill="none" xmlns="http://www.w3.org/2000/svg">
<path d="M23.2559 27.1385V15.36C23.2559 14.0431 22.9523 13.0215 22.345 12.2954C21.7496 11.5569 20.922 11.1877 19.8622 11.1877C19.1834 11.1877 18.594 11.3538 18.0939 11.6862C17.5938 12.0062 17.2008 12.4615 16.915 13.0523C16.6411 13.6308 16.5042 14.3015 16.5042 15.0646L14.468 13.6615C14.468 12.2954 14.7776 11.0892 15.3968 10.0431C16.0279 8.99692 16.8674 8.18461 17.9153 7.60615C18.9751 7.01538 20.148 6.72 21.434 6.72C23.637 6.72 25.2981 7.39692 26.4174 8.75077C27.5487 10.0923 28.1143 11.8523 28.1143 14.0308V27.1385H23.2559ZM0 27.1385V7.2H4.2868V13.8092H4.8941V27.1385H0ZM11.6458 27.1385V15.36C11.6458 14.0431 11.3422 13.0215 10.7349 12.2954C10.1395 11.5569 9.31189 11.1877 8.2521 11.1877C7.23994 11.1877 6.42425 11.5508 5.80505 12.2769C5.19775 12.9908 4.8941 13.92 4.8941 15.0646L2.85787 13.5877C2.85787 12.2831 3.17343 11.1138 3.80454 10.08C4.43565 9.04615 5.2811 8.22769 6.3409 7.62461C7.4126 7.02154 8.60933 6.72 9.9311 6.72C11.4434 6.72 12.6818 7.05231 13.6463 7.71692C14.6228 8.38154 15.3432 9.26769 15.8076 10.3754C16.272 11.4831 16.5042 12.7015 16.5042 14.0308V27.1385H11.6458Z" fill="white"/>
<path d="M41.0908 27.6923C39.1498 27.6923 37.447 27.2431 35.9824 26.3446C34.5177 25.4462 33.3746 24.2092 32.5529 22.6338C31.7432 21.0462 31.3383 19.2246 31.3383 17.1692C31.3383 15.0892 31.7551 13.2615 32.5886 11.6862C33.4222 10.0985 34.5713 8.86154 36.0359 7.97538C37.5006 7.08923 39.1856 6.64615 41.0908 6.64615C43.0318 6.64615 44.7346 7.09538 46.1992 7.99384C47.6758 8.89231 48.8249 10.1354 49.6465 11.7231C50.4682 13.2985 50.879 15.1138 50.879 17.1692C50.879 19.2369 50.4622 21.0646 49.6287 22.6523C48.8071 24.2277 47.6579 25.4646 46.1814 26.3631C44.7167 27.2492 43.0199 27.6923 41.0908 27.6923ZM41.0908 23.0031C42.6507 23.0031 43.8117 22.4615 44.5738 21.3785C45.3478 20.2831 45.7348 18.88 45.7348 17.1692C45.7348 15.3969 45.3419 13.9815 44.556 12.9231C43.782 11.8646 42.6269 11.3354 41.0908 11.3354C40.031 11.3354 39.1617 11.5815 38.483 12.0738C37.8043 12.5662 37.2982 13.2492 36.9648 14.1231C36.6432 14.9969 36.4825 16.0123 36.4825 17.1692C36.4825 18.9538 36.8695 20.3754 37.6435 21.4338C38.4294 22.48 39.5785 23.0031 41.0908 23.0031Z" fill="white"/>
<path d="M64.2736 27.6923C62.3564 27.6923 60.7548 27.2308 59.4688 26.3077C58.1828 25.3846 57.2123 24.1292 56.5573 22.5415C55.9143 20.9538 55.5928 19.1631 55.5928 17.1692C55.5928 15.1754 55.9143 13.3846 56.5573 11.7969C57.2004 10.2092 58.147 8.95385 59.3974 8.03077C60.6477 7.10769 62.1897 6.64615 64.0235 6.64615C65.8692 6.64615 67.4768 7.10154 68.8462 8.01231C70.2156 8.92308 71.2754 10.1723 72.0256 11.76C72.7877 13.3354 73.1687 15.1385 73.1687 17.1692C73.1687 19.1631 72.7936 20.9538 72.0434 22.5415C71.3051 24.1292 70.2692 25.3846 68.9355 26.3077C67.6018 27.2308 66.0479 27.6923 64.2736 27.6923ZM54.7712 27.1385V0.553846H59.6653V13.4769H59.058V27.1385H54.7712ZM63.4877 23.2246C64.5356 23.2246 65.3929 22.9538 66.0598 22.4123C66.7266 21.8708 67.2208 21.1446 67.5423 20.2338C67.8638 19.3108 68.0245 18.2892 68.0245 17.1692C68.0245 16.0615 67.8578 15.0523 67.5244 14.1415C67.191 13.2185 66.673 12.4862 65.9705 11.9446C65.2798 11.3908 64.3927 11.1138 63.3091 11.1138C62.2969 11.1138 61.4753 11.3662 60.8442 11.8708C60.2249 12.3754 59.7724 13.0831 59.4867 13.9938C59.2009 14.9046 59.058 15.9631 59.058 17.1692C59.058 18.3754 59.2009 19.4338 59.4867 20.3446C59.7724 21.2554 60.2369 21.9631 60.8799 22.4677C61.5348 22.9723 62.4041 23.2246 63.4877 23.2246Z" fill="white"/>
<path d="M78.1337 36L81.8489 25.44L81.9204 28.5415L73.5254 7.2H78.5624L84.2067 22.3015H83.0635L88.6721 7.2H93.5305L82.6348 36H78.1337Z" fill="white"/>
<path d="M109.047 27.1385C107.713 27.3969 106.403 27.5077 105.117 27.4708C103.843 27.4462 102.7 27.2185 101.688 26.7877C100.688 26.3446 99.9256 25.6369 99.4017 24.6646C98.9253 23.7538 98.6753 22.8308 98.6515 21.8954C98.6277 20.9477 98.6157 19.8769 98.6157 18.6831V1.66154H103.474V18.3877C103.474 19.1631 103.48 19.8646 103.492 20.4923C103.516 21.1077 103.641 21.6 103.867 21.9692C104.296 22.6708 104.98 23.0523 105.921 23.1138C106.862 23.1754 107.904 23.1262 109.047 22.9662V27.1385ZM95.3292 11.0769V7.2H109.047V11.0769H95.3292Z" fill="white"/>
<path d="M113.346 27.1385V7.2H117.633V12.0738L117.168 11.4462C117.418 10.7569 117.752 10.1292 118.168 9.56308C118.585 8.99692 119.097 8.52923 119.705 8.16C120.169 7.86461 120.675 7.63692 121.223 7.47692C121.771 7.30462 122.336 7.2 122.92 7.16308C123.503 7.11384 124.087 7.12615 124.67 7.2V11.8892C124.134 11.7169 123.509 11.6615 122.795 11.7231C122.092 11.7723 121.455 11.9385 120.883 12.2215C120.312 12.4923 119.83 12.8554 119.437 13.3108C119.044 13.7538 118.746 14.2831 118.544 14.8985C118.341 15.5015 118.24 16.1846 118.24 16.9477V27.1385H113.346Z" fill="white"/>
<path d="M128.425 4.43077V0H133.283V4.43077H128.425ZM128.425 27.1385V7.2H133.283V27.1385H128.425Z" fill="white"/>
<path d="M148.105 27.6923C146.188 27.6923 144.586 27.2308 143.3 26.3077C142.014 25.3846 141.044 24.1292 140.389 22.5415C139.746 20.9538 139.424 19.1631 139.424 17.1692C139.424 15.1754 139.746 13.3846 140.389 11.7969C141.032 10.2092 141.978 8.95385 143.229 8.03077C144.479 7.10769 146.021 6.64615 147.855 6.64615C149.701 6.64615 151.308 7.10154 152.677 8.01231C154.047 8.92308 155.107 10.1723 155.857 11.76C156.619 13.3354 157 15.1385 157 17.1692C157 19.1631 156.625 20.9538 155.875 22.5415C155.136 24.1292 154.1 25.3846 152.767 26.3077C151.433 27.2308 149.879 27.6923 148.105 27.6923ZM138.602 36V7.2H142.889V20.8615H143.497V36H138.602ZM147.319 23.2246C148.367 23.2246 149.224 22.9538 149.891 22.4123C150.558 21.8708 151.052 21.1446 151.374 20.2338C151.695 19.3108 151.856 18.2892 151.856 17.1692C151.856 16.0615 151.689 15.0523 151.356 14.1415C151.022 13.2185 150.504 12.4862 149.802 11.9446C149.111 11.3908 148.224 11.1138 147.14 11.1138C146.128 11.1138 145.307 11.3662 144.675 11.8708C144.056 12.3754 143.604 13.0831 143.318 13.9938C143.032 14.9046 142.889 15.9631 142.889 17.1692C142.889 18.3754 143.032 19.4338 143.318 20.3446C143.604 21.2554 144.068 21.9631 144.711 22.4677C145.366 22.9723 146.235 23.2246 147.319 23.2246Z" fill="white"/>
</svg>
