<svg width="16" height="16" viewBox="0 0 16 16" fill="none" xmlns="http://www.w3.org/2000/svg">
<path d="M3.56443 7.99996C4.38098 7.99996 5.04293 7.33801 5.04293 6.52146C5.04293 5.70491 4.38098 5.04297 3.56443 5.04297C2.74788 5.04297 2.08594 5.70491 2.08594 6.52146C2.08594 7.33801 2.74788 7.99996 3.56443 7.99996Z" fill="#6F7096"/>
<path d="M6.22654 5.63436C7.04309 5.63436 7.70504 4.97241 7.70504 4.15586C7.70504 3.33931 7.04309 2.67737 6.22654 2.67737C5.40999 2.67737 4.74805 3.33931 4.74805 4.15586C4.74805 4.97241 5.40999 5.63436 6.22654 5.63436Z" fill="#6F7096"/>
<path d="M9.77342 5.63436C10.59 5.63436 11.2519 4.97241 11.2519 4.15586C11.2519 3.33931 10.59 2.67737 9.77342 2.67737C8.95687 2.67737 8.29492 3.33931 8.29492 4.15586C8.29492 4.97241 8.95687 5.63436 9.77342 5.63436Z" fill="#6F7096"/>
<path d="M12.4355 7.99996C13.2521 7.99996 13.914 7.33801 13.914 6.52146C13.914 5.70491 13.2521 5.04297 12.4355 5.04297C11.619 5.04297 10.957 5.70491 10.957 6.52146C10.957 7.33801 11.619 7.99996 12.4355 7.99996Z" fill="#6F7096"/>
<path d="M11.1587 9.69141C10.6442 9.08818 10.2125 8.57367 9.69204 7.97044C9.42 7.65109 9.07108 7.33173 8.6571 7.1898C8.59204 7.16614 8.52699 7.1484 8.46194 7.13657C8.31409 7.11292 8.15441 7.11292 8.00065 7.11292C7.84688 7.11292 7.68721 7.11292 7.53344 7.14249C7.46839 7.15431 7.40333 7.17206 7.33828 7.19571C6.9243 7.33765 6.58129 7.657 6.30333 7.97636C5.78882 8.57958 5.3571 9.0941 4.83667 9.69732C4.06194 10.4721 3.10979 11.3296 3.28721 12.5301C3.45871 13.1333 3.89043 13.7307 4.66516 13.9022C5.09688 13.9909 6.47484 13.6419 7.94151 13.6419H8.04796C9.51463 13.6419 10.8926 13.985 11.3243 13.9022C12.099 13.7307 12.5308 13.1274 12.7023 12.5301C12.8856 11.3237 11.9334 10.4661 11.1587 9.69141Z" fill="#6F7096"/>
</svg>
