<svg width="16" height="16" viewBox="0 0 16 16" fill="none" xmlns="http://www.w3.org/2000/svg">
<path d="M14.6673 8.00004C14.6673 4.31804 11.6827 1.33337 8.00065 1.33337C4.31865 1.33337 1.33398 4.31804 1.33398 8.00004C1.33398 11.682 4.31865 14.6667 8.00065 14.6667C11.6827 14.6667 14.6673 11.682 14.6673 8.00004ZM5.00065 5.82937C5.23198 5.57471 5.61065 5.33337 6.16732 5.33337C6.93532 5.33337 7.42998 5.86137 7.60398 6.44071C7.77265 7.00537 7.67065 7.70404 7.19065 8.18604C7.02417 8.34609 6.84758 8.49529 6.66198 8.63271L6.63532 8.65337C6.44865 8.79737 6.28198 8.92804 6.13532 9.07337C5.96532 9.24404 5.82598 9.43004 5.74532 9.66671H7.16732C7.29993 9.66671 7.4271 9.71939 7.52087 9.81315C7.61464 9.90692 7.66732 10.0341 7.66732 10.1667C7.66732 10.2993 7.61464 10.4265 7.52087 10.5203C7.4271 10.614 7.29993 10.6667 7.16732 10.6667H5.16732C5.03471 10.6667 4.90753 10.614 4.81376 10.5203C4.72 10.4265 4.66732 10.2993 4.66732 10.1667C4.66732 9.33537 5.01665 8.77804 5.42998 8.36604C5.62732 8.16871 5.84198 8.00271 6.02332 7.86204L6.02532 7.86071C6.21598 7.71337 6.36398 7.59871 6.48198 7.48071C6.66332 7.29804 6.72665 6.99737 6.64598 6.72737C6.56932 6.47337 6.39932 6.33337 6.16732 6.33337C5.93198 6.33337 5.81065 6.42471 5.74065 6.50204C5.6997 6.54724 5.66637 6.5988 5.64198 6.65471V6.65671C5.60114 6.78295 5.51182 6.8878 5.39367 6.94818C5.27552 7.00857 5.13823 7.01955 5.01198 6.97871C4.88574 6.93786 4.78089 6.84854 4.72051 6.7304C4.66012 6.61225 4.64914 6.47495 4.68998 6.34871L4.71332 6.28471C4.78182 6.11749 4.87881 5.96343 4.99998 5.82937H5.00065ZM8.83398 5.33337C8.96659 5.33337 9.09377 5.38605 9.18754 5.47982C9.28131 5.57359 9.33398 5.70077 9.33398 5.83337V7.66671H10.334V5.83337C10.334 5.70077 10.3867 5.57359 10.4804 5.47982C10.5742 5.38605 10.7014 5.33337 10.834 5.33337C10.9666 5.33337 11.0938 5.38605 11.1875 5.47982C11.2813 5.57359 11.334 5.70077 11.334 5.83337V10.1467C11.334 10.2793 11.2813 10.4065 11.1875 10.5003C11.0938 10.594 10.9666 10.6467 10.834 10.6467C10.7014 10.6467 10.5742 10.594 10.4804 10.5003C10.3867 10.4065 10.334 10.2793 10.334 10.1467V8.66671H8.83398C8.70138 8.66671 8.5742 8.61403 8.48043 8.52026C8.38666 8.42649 8.33398 8.29932 8.33398 8.16671V5.83337C8.33398 5.70077 8.38666 5.57359 8.48043 5.47982C8.5742 5.38605 8.70138 5.33337 8.83398 5.33337V5.33337Z" fill="#6F7096"/>
</svg>
