<svg width="16" height="16" viewBox="0 0 16 16" fill="none" xmlns="http://www.w3.org/2000/svg">
<path d="M13.8959 11.1838L14.2452 11.8876C14.3417 12.0819 14.2623 12.3176 14.068 12.4141L12.4606 13.2216C12.0665 13.4172 11.5876 13.2509 11.4001 12.8519L9.85875 9.57138H6.42913C6.03811 9.57138 5.70662 9.28385 5.6513 8.89677C4.81923 3.07224 4.86703 3.43406 4.8577 3.28566C4.8577 2.39294 5.60212 1.67409 6.50407 1.71598C7.32099 1.75391 7.97846 2.4257 7.99999 3.24323C8.02131 4.05186 7.43153 4.72683 6.65917 4.84017L6.77384 5.64283H9.96484C10.1818 5.64283 10.3577 5.81871 10.3577 6.03569V6.8214C10.3577 7.03838 10.1818 7.21426 9.96484 7.21426H6.99833L7.11059 7.99997H10.3577C10.5069 7.99997 10.653 8.04244 10.7789 8.12241C10.9048 8.20238 11.0054 8.31655 11.0688 8.45156L12.481 11.4571L13.3693 11.0066C13.5637 10.9101 13.7994 10.9894 13.8959 11.1838V11.1838ZM9.35979 10.3571H8.75808C8.56686 11.688 7.41923 12.7142 6.03627 12.7142C4.51992 12.7142 3.28627 11.4806 3.28627 9.96423C3.28627 8.94514 3.84349 8.05374 4.66923 7.57871C4.57808 6.94117 4.50118 6.40357 4.43626 5.94999C2.84323 6.58723 1.71484 8.14636 1.71484 9.96423C1.71484 12.3471 3.65342 14.2857 6.03627 14.2857C7.80094 14.2857 9.32169 13.2223 9.9921 11.7028L9.35979 10.3571Z" fill="#6F7096"/>
</svg>
