<svg width="16" height="16" viewBox="0 0 16 16" fill="none" xmlns="http://www.w3.org/2000/svg">
<g clip-path="url(#clip0_132_4160)">
<path d="M15.8727 5.08895C11.4435 0.969597 4.55473 0.971105 0.127229 5.08895C-0.0392713 5.2438 -0.0425213 5.50598 0.118479 5.66662L0.974479 6.52055C1.12798 6.67389 1.37498 6.67716 1.53448 6.5301C5.18248 3.16967 10.817 3.16891 14.4657 6.5301C14.6252 6.67716 14.8722 6.67364 15.0257 6.52055L15.8817 5.66662C16.0425 5.50598 16.0392 5.2438 15.8727 5.08895ZM7.99998 10.0441C7.11623 10.0441 6.39998 10.7643 6.39998 11.653C6.39998 12.5416 7.11623 13.2618 7.99998 13.2618C8.88373 13.2618 9.59998 12.5416 9.59998 11.653C9.59998 10.7643 8.88373 10.0441 7.99998 10.0441ZM13.0667 7.94285C10.1852 5.38055 5.81148 5.38331 2.93323 7.94285C2.76073 8.09619 2.75523 8.36241 2.91898 8.5248L3.77998 9.37923C3.92998 9.52805 4.17148 9.53811 4.33123 9.39934C6.42998 7.57509 9.57473 7.57911 11.6685 9.39934C11.8282 9.53811 12.0697 9.5283 12.2197 9.37923L13.0807 8.5248C13.2447 8.36241 13.239 8.09594 13.0667 7.94285Z" fill="#6F7096"/>
</g>
<defs>
<clipPath id="clip0_132_4160">
<rect width="16" height="16" fill="white"/>
</clipPath>
</defs>
</svg>
